<?xml version="1.0" standalone="no"?>
<!DOCTYPE svg PUBLIC "-//W3C//DTD SVG 20010904//EN"
 "http://www.w3.org/TR/2001/REC-SVG-20010904/DTD/svg10.dtd">
<svg version="1.0" xmlns="http://www.w3.org/2000/svg"
 width="924.000000pt" height="924.000000pt" viewBox="0 0 924.000000 924.000000"
 preserveAspectRatio="xMidYMid meet">
<metadata>
Created by potrace 1.14, written by Peter Selinger 2001-2017
</metadata>
<g transform="translate(0.000000,924.000000) scale(0.100000,-0.100000)"
fill="#000000" stroke="none">
<path d="M6602 6995 c-191 -54 -314 -222 -313 -430 0 -132 41 -226 135 -312
44 -41 51 -51 42 -66 -16 -25 1 -47 59 -77 l49 -26 43 -154 c88 -311 120 -543
102 -741 -12 -138 -33 -220 -122 -456 -100 -265 -120 -349 -121 -488 0 -96 8
-151 31 -213 6 -14 4 -15 -9 -4 -9 7 -26 36 -38 65 -21 49 -22 59 -14 172 5
66 8 181 9 255 0 125 -2 139 -26 190 -36 77 -80 124 -155 166 -59 33 -82 50
-51 38 26 -10 91 20 97 45 4 18 18 27 61 41 194 60 325 280 290 488 -55 326
-413 459 -643 238 -59 -56 -92 -108 -119 -188 -26 -77 -28 -201 -5 -267 18
-53 36 -34 -159 -164 -200 -134 -315 -195 -315 -167 0 21 109 125 189 180 44
30 82 61 85 68 4 8 -3 27 -15 43 -23 33 -51 37 -121 18 -40 -11 -48 -10 -122
25 -90 41 -149 47 -166 17 -15 -28 -13 -36 15 -70 l26 -30 -103 -69 c-134 -90
-278 -174 -290 -170 -15 5 49 86 154 194 105 108 110 124 38 124 -29 0 -44 -8
-80 -46 -45 -46 -245 -200 -288 -223 -58 -31 -33 17 65 125 77 85 84 108 37
120 -29 7 -59 -11 -129 -77 -48 -45 -136 -100 -182 -114 -21 -6 -21 -4 9 53
38 75 48 145 24 171 -14 15 -31 19 -74 19 -76 0 -154 -41 -247 -129 -154 -146
-199 -306 -100 -353 72 -34 143 -8 244 89 44 43 76 65 92 65 13 1 40 7 60 14
l37 13 -24 -51 c-29 -61 -30 -87 -6 -109 40 -36 96 -12 199 84 28 27 54 49 56
49 3 0 -3 -21 -13 -47 -33 -92 4 -140 89 -114 65 19 145 77 442 319 28 22 29
22 78 6 l50 -16 -58 -48 c-77 -64 -104 -109 -105 -172 -1 -42 3 -53 27 -74 39
-33 89 -31 163 6 78 39 247 167 359 272 l89 84 36 -47 c20 -26 53 -61 73 -78
21 -16 33 -32 27 -36 -17 -11 -11 -40 13 -63 13 -12 27 -22 32 -22 4 0 23 -15
41 -34 19 -19 61 -49 94 -67 70 -37 103 -73 137 -147 34 -73 39 -167 18 -342
-13 -115 -15 -158 -6 -204 18 -97 70 -170 143 -200 34 -15 37 -15 43 3 3 10 3
25 0 32 -3 9 7 22 26 33 69 41 229 168 274 218 104 115 164 244 165 353 0 59
1 61 49 102 61 53 93 119 91 187 -2 74 -1 103 5 181 5 63 3 74 -19 110 l-24
40 31 10 c24 7 33 17 35 36 3 22 10 28 40 34 113 21 236 132 283 254 43 115
43 227 -2 346 -31 83 -130 182 -214 215 -81 31 -188 32 -267 1 -190 -74 -307
-293 -264 -498 22 -107 71 -189 151 -253 20 -16 31 -31 25 -35 -31 -19 6 -71
70 -95 57 -22 80 -41 101 -81 30 -59 22 -153 -10 -115 -33 39 -120 22 -143
-29 -21 -46 24 -105 80 -105 9 0 30 7 46 15 15 8 30 15 32 15 13 0 1 -90 -16
-125 -24 -50 -80 -106 -87 -87 -10 27 -54 70 -78 76 -36 9 -93 -18 -105 -49
-22 -57 46 -114 122 -103 l31 5 -6 -62 c-16 -174 -129 -326 -360 -483 l-92
-63 -13 38 c-8 21 -17 88 -19 148 -6 146 13 233 115 506 44 118 87 241 96 274
64 256 43 531 -75 947 -21 76 -39 140 -39 143 0 3 14 5 31 5 44 0 69 17 69 45
0 20 5 25 24 25 13 0 55 16 94 35 211 106 297 369 193 590 -76 164 -265 256
-429 210z m233 -67 c64 -33 129 -103 163 -176 24 -50 27 -69 27 -162 0 -97 -2
-110 -32 -172 -37 -79 -101 -146 -175 -184 -41 -21 -73 -29 -143 -33 l-90 -6
43 -23 c23 -12 42 -27 42 -32 0 -13 -51 -13 -106 1 -50 13 -64 26 -37 36 18 6
33 22 33 34 0 3 -18 14 -40 24 -22 10 -61 40 -86 67 -174 186 -120 507 106
623 58 30 82 35 165 31 62 -2 91 -8 130 -28z m500 -880 c186 -95 252 -356 138
-546 -48 -80 -78 -108 -157 -147 -61 -31 -78 -35 -147 -35 -44 0 -79 -4 -79
-8 0 -5 18 -17 40 -27 50 -23 51 -35 3 -35 -76 0 -152 34 -105 47 17 4 40 33
30 37 -80 31 -151 100 -192 186 -29 60 -31 73 -31 170 0 97 2 110 32 172 47
100 132 176 233 209 14 5 61 7 105 5 62 -2 91 -8 130 -28z m-931 -279 c77 -28
148 -96 188 -177 31 -62 33 -73 33 -172 0 -97 -2 -110 -32 -172 -38 -80 -108
-154 -178 -188 -39 -19 -70 -26 -137 -28 -49 -2 -88 -7 -88 -11 0 -5 18 -16
40 -26 22 -10 40 -22 40 -28 0 -13 -110 -3 -140 13 l-24 13 27 14 c37 19 33
35 -13 56 -100 46 -177 171 -187 302 -21 280 229 495 471 404z m-1922 -611
c-31 -56 -62 -75 -62 -39 0 21 62 91 81 91 6 0 -2 -24 -19 -52z m-102 -145 c0
-16 -98 -101 -132 -112 -25 -9 -28 -8 -28 10 0 28 44 112 81 154 l32 36 23
-38 c13 -21 24 -43 24 -50z m2730 -29 c18 -20 -8 -46 -45 -46 -34 0 -39 6 -31
37 5 19 13 25 35 25 16 0 34 -7 41 -16z m-126 -266 c20 -28 20 -34 -1 -42 -18
-7 -83 11 -83 24 0 44 58 56 84 18z"/>
<path d="M3758 5701 c-116 -37 -257 -131 -359 -238 -130 -135 -181 -244 -69
-145 161 141 351 246 524 289 117 28 115 25 -174 -233 -238 -212 -315 -298
-358 -397 -28 -64 -6 -144 48 -172 107 -55 283 51 609 369 136 132 130 125
-166 -212 -202 -228 -203 -229 -250 -236 -66 -9 -197 -76 -275 -140 -125 -103
-160 -195 -98 -258 28 -28 34 -30 77 -23 199 30 419 215 654 550 195 277 405
545 557 710 89 97 97 118 50 145 -27 14 -29 14 -75 -31 -132 -128 -585 -499
-772 -634 -101 -73 -215 -139 -231 -133 -26 8 66 112 224 253 278 247 359 344
359 426 0 109 -124 158 -275 110z m-234 -1068 c-97 -117 -285 -286 -299 -271
-10 10 62 107 129 174 67 67 205 169 214 159 3 -3 -17 -30 -44 -62z"/>
<path d="M3460 4079 c-22 -24 -136 -152 -253 -285 -206 -234 -216 -244 -332
-321 -182 -121 -295 -180 -295 -153 0 21 109 125 189 180 44 30 82 61 85 68 4
8 -3 27 -15 43 -23 33 -51 37 -121 18 -40 -11 -48 -10 -122 25 -92 42 -149 47
-166 16 -14 -27 -5 -55 26 -79 l25 -20 -138 -91 c-76 -51 -174 -109 -218 -130
-86 -41 -201 -68 -218 -51 -13 13 -2 52 22 82 17 22 21 22 45 10 22 -12 31
-12 70 3 106 40 230 145 242 203 5 27 1 37 -25 64 -29 29 -36 31 -81 27 -105
-10 -266 -122 -339 -236 -58 -91 -63 -200 -10 -248 31 -28 126 -24 206 9 120
49 297 164 443 287 l35 29 47 -15 47 -16 -58 -48 c-77 -64 -104 -109 -105
-172 -1 -42 3 -53 27 -74 49 -42 126 -27 233 46 l45 32 -73 -90 c-192 -237
-242 -417 -137 -495 24 -17 31 -18 63 -7 90 29 232 174 293 297 29 60 38 142
20 191 -6 15 -5 22 4 22 21 0 133 61 199 109 l65 47 1 -52 c1 -156 139 -162
386 -17 l83 49 1 -48 c1 -87 59 -121 168 -98 61 13 209 84 301 146 91 61 89
60 72 28 -37 -74 -28 -145 25 -189 60 -51 132 -20 335 142 148 117 293 251
293 268 0 32 -26 21 -142 -61 -171 -119 -373 -244 -398 -244 -30 0 -25 29 18
96 67 102 242 287 308 327 7 4 103 16 215 28 256 26 281 37 181 81 -32 14 -76
22 -149 26 -116 6 -119 8 -76 73 32 48 23 62 -38 57 -41 -3 -47 -7 -94 -69
l-50 -66 -80 -7 c-84 -8 -354 -43 -392 -51 -34 -8 -28 -21 22 -51 40 -23 59
-27 166 -31 l120 -6 -48 -49 c-56 -58 -341 -252 -434 -296 -68 -32 -171 -57
-195 -48 -58 22 94 225 209 280 111 52 130 41 41 -24 -30 -23 -53 -47 -51 -53
8 -24 80 -19 137 10 84 43 124 119 83 155 -70 61 -302 -16 -436 -144 -65 -62
-187 -142 -280 -183 -68 -29 -176 -50 -190 -36 -13 13 -2 52 22 82 17 22 21
22 45 10 22 -12 31 -12 70 3 106 40 230 145 242 203 5 27 1 37 -25 64 -29 29
-36 31 -81 27 -63 -6 -165 -56 -227 -112 -26 -23 -82 -65 -123 -93 -94 -63
-289 -177 -294 -172 -2 2 122 141 276 309 314 343 398 437 398 448 0 20 -28
41 -63 48 -35 6 -40 3 -77 -37z m-1270 -479 c0 -20 -168 -140 -196 -140 -14 0
51 62 110 106 57 43 86 54 86 34z m1390 0 c0 -20 -168 -140 -196 -140 -14 0
51 62 110 106 57 43 86 54 86 34z m-715 -419 c14 -45 -56 -169 -159 -279 -58
-61 -112 -100 -124 -88 -9 10 48 123 110 217 97 149 157 201 173 150z"/>
<path d="M7450 3918 c-23 -28 -46 -59 -53 -68 -9 -13 -34 -19 -92 -24 -86 -8
-355 -43 -392 -51 -34 -8 -28 -21 22 -51 40 -23 59 -27 165 -31 l120 -6 -92
-96 c-127 -134 -359 -300 -420 -301 -27 0 -22 40 10 88 15 22 64 82 110 132
45 50 82 95 82 99 0 13 -22 29 -52 36 -24 6 -45 -6 -155 -88 -70 -53 -129 -94
-131 -92 -2 2 20 38 50 80 l53 77 -24 19 c-33 27 -61 21 -89 -21 -29 -43 -263
-203 -387 -265 -94 -46 -209 -75 -228 -56 -13 13 -2 52 22 82 17 22 21 22 45
10 22 -12 31 -12 70 3 106 40 230 145 242 203 5 27 1 37 -25 64 -29 29 -36 31
-81 27 -116 -11 -302 -152 -360 -273 -46 -94 -28 -200 38 -227 69 -27 228 32
417 156 93 62 94 63 64 25 -17 -21 -43 -48 -58 -59 -37 -26 -45 -56 -20 -81
10 -10 25 -19 32 -19 21 0 94 50 209 142 l106 86 -39 -61 c-63 -97 -52 -181
27 -207 48 -16 101 5 202 79 104 77 106 78 98 53 -11 -35 12 -98 46 -127 60
-51 132 -20 335 142 148 117 293 251 293 268 0 32 -26 21 -142 -61 -171 -119
-373 -244 -398 -244 -30 0 -25 29 18 96 67 102 242 287 308 327 7 4 103 16
215 28 256 26 281 37 181 81 -32 14 -76 22 -149 26 -116 6 -119 8 -77 72 14
21 23 44 19 49 -3 6 -26 11 -50 11 -42 0 -47 -3 -85 -52z m-1220 -318 c0 -20
-168 -140 -196 -140 -14 0 51 62 110 106 57 43 86 54 86 34z"/>
<path d="M1551 3703 c-211 -213 -710 -797 -744 -871 -9 -20 -6 -27 24 -52 19
-16 41 -29 49 -30 8 0 25 18 38 40 52 91 357 440 384 440 6 0 23 -11 40 -25
23 -20 41 -25 83 -25 82 0 214 70 310 164 90 90 110 137 80 193 -10 19 -28 39
-38 45 -50 26 -171 -25 -298 -128 -117 -94 -73 -37 118 152 84 84 153 158 153
166 0 21 -33 48 -59 48 -16 0 -59 -37 -140 -117z m169 -212 c0 -15 -98 -100
-169 -146 -85 -55 -148 -84 -180 -85 -20 0 -12 9 40 48 121 91 278 191 302
192 4 0 7 -4 7 -9z"/>
<path d="M5885 3708 c-20 -91 -146 -257 -272 -359 -74 -58 -93 -69 -93 -49 0
31 101 179 160 235 43 41 75 94 63 106 -5 5 -22 11 -39 15 -29 5 -37 0 -115
-86 -87 -95 -196 -173 -325 -231 -71 -32 -182 -55 -197 -40 -13 13 -2 52 22
82 17 22 21 22 45 10 22 -12 31 -12 70 3 106 40 230 145 242 203 5 27 1 37
-25 64 -29 29 -36 31 -81 27 -116 -11 -302 -152 -360 -273 -46 -94 -28 -200
38 -227 57 -22 188 18 329 101 l53 31 -6 -43 c-21 -153 151 -114 357 81 158
150 213 256 176 345 -20 46 -33 47 -42 5z m-535 -108 c0 -20 -168 -140 -196
-140 -14 0 51 62 110 106 57 43 86 54 86 34z"/>
</g>
</svg>
